Coordinates
version=1
nRows=9
nColumns=24
inDegrees=yes

Units are S.I. units (second, meters, Newtons, ...)
Angles are in degrees.

endheader
time	pelvis_tilt	pelvis_list	pelvis_rotation	pelvis_tx	pelvis_ty	pelvis_tz	hip_flexion_r	hip_adduction_r	hip_rotation_r	knee_angle_r	ankle_angle_r	subtalar_angle_r	mtp_angle_r	hip_flexion_l	hip_adduction_l	hip_rotation_l	knee_angle_l	ankle_angle_l	subtalar_angle_l	mtp_angle_l	lumbar_extension	lumbar_bending	lumbar_rotation
      1.18666667	     -0.17484874	      6.70429040	      1.10583183	      0.20877039	      0.99124608	      0.28600717	     20.46557520	     -7.59830161	     -0.31509188	    -71.82371660	      1.84007283	     -7.89224352	      3.67842571	     10.41832087	     12.23099610	      2.45720878	    -15.51753836	      4.10635395	    -10.01783980	      0.39410343	     -0.90238146	     -4.20721401	      2.11403774
      1.19083333	     -0.11028892	      6.62703832	      1.12324364	      0.21392793	      0.99214221	      0.28588878	     20.99301057	     -7.45966254	     -0.19317178	    -71.61646370	      2.51307461	     -8.13422076	      3.60320622	      9.83648844	     12.15294991	      2.57952223	    -15.19700231	      4.23552360	     -9.94694874	      0.37818151	     -0.98846102	     -4.11275096	      2.08515320
      1.19500000	     -0.04623828	      6.52994029	      1.13723198	      0.21907975	      0.99302777	      0.28579949	     21.49976354	     -7.28933925	     -0.07150373	    -71.33109101	      3.13895245	     -8.45586213	      3.51913465	      9.25188201	     12.05295998	      2.72443221	    -14.86631491	      4.32225085	     -9.93435419	      0.35681771	     -1.07773291	     -3.99709456	      2.04569018
      1.19916667	      0.06890450	      6.45197808	      1.14529580	      0.22425917	      0.99398193	      0.28570851	     21.92575877	     -7.14509487	      0.04203708	    -70.96842475	      3.68841998	     -8.88640652	      3.31869837	      8.58211329	     11.97738301	      2.91916033	    -14.47489914	      4.37189307	    -10.01317120	      0.30028006	     -1.21847637	     -3.91259937	      1.98734485
      1.20333333	      0.12444721	      6.32790416	      1.17015150	      0.22940114	      0.99480910	      0.28562714	     22.39661957	     -6.95215286	      0.12998692	    -70.54066297	      4.31746733	     -9.11595909	      3.24214514	      8.01891953	     11.84536516	      3.06474904	    -14.16584154	      4.45809167	    -10.01442516	      0.27656021	     -1.28931400	     -3.76258775	      1.95580465
      1.20750000	      0.23189620	      6.25535573	      1.16749271	      0.23454976	      0.99566370	      0.28555465	     22.80383723	     -6.81115399	      0.24906001	    -70.06979421	      4.93996299	     -9.33197673	     -0.12375499	      7.35997727	     11.77687504	      3.28103556	    -13.77108746	      4.48061024	    -10.17433875	     -0.78895912	     -1.43323230	     -3.67739327	      1.89219351
      1.21166667	      0.28614250	      6.13735536	      1.20538152	      0.23966256	      0.99642965	      0.28549854	     23.23586060	     -6.62271134	      0.32435718	    -69.51550074	      5.50721759	     -9.68161980	     -0.13634915	      6.80406749	     11.64998761	      3.46185957	    -13.47143036	      4.59472523	    -10.15629346	     -0.79003906	     -1.50836903	     -3.55221929	      1.86041429
      1.21583333	      0.38362759	      6.03691770	      1.21977480	      0.24480801	      0.99721792	      0.28544068	     23.60458528	     -6.45954745	      0.40334255	    -68.90298848	      6.01937250	    -10.06932764	     -0.16904403	      6.17624749	     11.54134897	      3.64044794	    -13.11559842	      4.66605802	    -10.21942819	     -0.79984644	     -1.63452022	     -3.42840795	      1.80875827
      1.22000000	      0.43393579	      5.91404245	      1.25169839	      0.24991472	      0.99788924	      0.28539561	     24.00190659	     -6.27155313	      0.46661569	    -68.22505835	      6.54546501	    -10.33696344	     -0.19127926	      5.63138743	     11.40716030	      3.80794117	    -12.82129742	      4.74674833	    -10.26185940	     -0.80830001	     -1.70320238	     -3.29467845	      1.77322346
